<!DOCTYPE svg PUBLIC "-//W3C//DTD SVG 1.1//EN" "http://www.w3.org/Graphics/SVG/1.1/DTD/svg11.dtd">
<!-- Uploaded to: SVG Repo, www.svgrepo.com, Transformed by: SVG Repo Mixer Tools -->
<svg width="256px" height="256px" viewBox="0 0 24 24" fill="none" xmlns="http://www.w3.org/2000/svg">
<g id="SVGRepo_bgCarrier" stroke-width="0"/>
<g id="SVGRepo_tracerCarrier" stroke-linecap="round" stroke-linejoin="round"/>
<g id="SVGRepo_iconCarrier"> <path d="M12.4475 1.10557C12.1659 0.964809 11.8346 0.964809 11.553 1.10557L1.55303 6.10557C1.21425 6.27496 1.00024 6.62123 1.00024 7C1.00024 7.37877 1.21425 7.72504 1.55303 7.89443L11.553 12.8944C11.8346 13.0352 12.1659 13.0352 12.4475 12.8944L22.4475 7.89443C22.7862 7.72504 23.0002 7.37877 23.0002 7C23.0002 6.62123 22.7862 6.27496 22.4475 6.10557L12.4475 1.10557Z" fill="#0DB7ED"/> <path d="M1.10579 16.5528C1.35278 16.0588 1.95345 15.8586 2.44743 16.1055L12.0002 20.8819L21.553 16.1055C22.047 15.8586 22.6477 16.0588 22.8946 16.5528C23.1416 17.0467 22.9414 17.6474 22.4474 17.8944L12.4474 22.8944C12.1659 23.0352 11.8345 23.0352 11.553 22.8944L1.55301 17.8944C1.05903 17.6474 0.858803 17.0467 1.10579 16.5528Z" fill="#0DB7ED"/> <path d="M2.44743 11.1055C1.95345 10.8586 1.35278 11.0588 1.10579 11.5528C0.858803 12.0467 1.05903 12.6474 1.55301 12.8944L11.553 17.8944C11.8345 18.0352 12.1659 18.0352 12.4474 17.8944L22.4474 12.8944C22.9414 12.6474 23.1416 12.0467 22.8946 11.5528C22.6477 11.0588 22.047 10.8586 21.553 11.1055L12.0002 15.8819L2.44743 11.1055Z" fill="#0DB7ED"/> </g>
</svg>