<!DOCTYPE svg PUBLIC "-//W3C//DTD SVG 1.1//EN" "http://www.w3.org/Graphics/SVG/1.1/DTD/svg11.dtd">
<!-- Uploaded to: SVG Repo, www.svgrepo.com, Transformed by: SVG Repo Mixer Tools -->
<svg fill="#0DB7ED" width="800px" height="800px" viewBox="0 0 24 24" xmlns="http://www.w3.org/2000/svg">
<g id="SVGRepo_bgCarrier" stroke-width="0"/>
<g id="SVGRepo_tracerCarrier" stroke-linecap="round" stroke-linejoin="round"/>
<g id="SVGRepo_iconCarrier">
<path d="M20.492,10.04a8.987,8.987,0,0,0-6.376-5.788A1.583,1.583,0,0,1,15,4a1,1,0,0,0,0-2,3.541,3.541,0,0,0-3.27,2.011A8.979,8.979,0,0,0,3.508,10.04a3,3,0,0,0,0,5.92,8.99,8.99,0,0,0,16.984,0,3,3,0,0,0,0-5.92ZM20.007,14l-.137-.018a1.007,1.007,0,0,0-1.1.747,6.99,6.99,0,0,1-13.55,0,1,1,0,0,0-.968-.754c-.042,0-.084,0-.127.007L4,14a1,1,0,0,1-.008-2l.133.017a1,1,0,0,0,1.1-.745,6.976,6.976,0,0,1,5.847-5.194A6.581,6.581,0,0,0,11,7a1,1,0,0,0,1,1h0a1,1,0,0,0,1-1,5.492,5.492,0,0,1,.1-.91,6.982,6.982,0,0,1,5.676,5.179,1,1,0,0,0,1.1.745L20.006,12a1,1,0,0,1,0,2ZM10.5,13A1.5,1.5,0,1,1,9,11.5,1.5,1.5,0,0,1,10.5,13Zm6,0A1.5,1.5,0,1,1,15,11.5,1.5,1.5,0,0,1,16.5,13Z"/>
</g>
</svg>