<!DOCTYPE svg PUBLIC "-//W3C//DTD SVG 1.1//EN" "http://www.w3.org/Graphics/SVG/1.1/DTD/svg11.dtd">

<!-- This SVG represents a singular chain link, a symbol often associated with blockchain -->
<svg width="256px" height="256px" viewBox="0 0 24 24" fill="none" xmlns="http://www.w3.org/2000/svg">
  <!-- Background carrier group -->
  <g id="SVGRepo_bgCarrier" stroke-width="0"/>
  
  <!-- Tracer carrier group -->
  <g id="SVGRepo_tracerCarrier" stroke-linecap="round" stroke-linejoin="round"/>
  
  <!-- Icon carrier group representing a single chain link -->
  <g id="SVGRepo_iconCarrier" fill="#0DB7ED">
    <!-- Outer path of the chain link -->
    <path d="M12,2C6.48,2,2,6.48,2,12s4.48,10,10,10s10-4.48,10-10S17.52,2,12,2z M12,20c-4.41,0-8-3.59-8-8s3.59-8,8-8s8,3.59,8,8
    S16.41,20,12,20z"/>
    <!-- Inner path of the chain link to create the link effect -->
    <path d="M12,6c-3.31,0-6,2.69-6,6s2.69,6,6,6s6-2.69,6-6S15.31,6,12,6z m0,10c-2.21,0-4-1.79-4-4s1.79-4,4-4s4,1.79,4,4
    S14.21,16,12,16z"/>
  </g>
</svg>
