<!DOCTYPE svg PUBLIC "-//W3C//DTD SVG 1.1//EN" "http://www.w3.org/Graphics/SVG/1.1/DTD/svg11.dtd">
<!-- Uploaded to: SVG Repo, www.svgrepo.com, Transformed by: SVG Repo Mixer Tools -->
<svg width="256px" height="256px" viewBox="0 0 24 24" fill="none" xmlns="http://www.w3.org/2000/svg">
<g id="SVGRepo_bgCarrier" stroke-width="0"/>
<g id="SVGRepo_tracerCarrier" stroke-linecap="round" stroke-linejoin="round"/>
<g id="SVGRepo_iconCarrier"> <path opacity="0.1" d="M20 7C20 9.20914 16.4183 11 12 11C7.58172 11 4 9.20914 4 7C4 4.79086 7.58172 3 12 3C16.4183 3 20 4.79086 20 7Z" fill="#0DB7ED"/> <path opacity="0.1" d="M19.75 13.4766C19.3141 14.0925 18.6191 14.6267 17.7687 15.052C16.2794 15.7966 14.2395 16.25 12 16.25C9.76047 16.25 7.72059 15.7966 6.23134 15.052C5.38086 14.6267 4.68587 14.0925 4.25 13.4766V17C4.25 17.9588 5.03381 18.8942 6.45495 19.6048C7.86113 20.3079 9.82126 20.75 12 20.75C14.1787 20.75 16.1389 20.3079 17.5451 19.6048C18.9662 18.8942 19.75 17.9588 19.75 17V13.4766Z" fill="#0DB7ED"/> <path d="M20 7C20 9.20914 16.4183 11 12 11C7.58172 11 4 9.20914 4 7C4 4.79086 7.58172 3 12 3C16.4183 3 20 4.79086 20 7Z" stroke="#0DB7ED" stroke-width="2"/> <path d="M20 12C20 14.2091 16.4183 16 12 16C7.58172 16 4 14.2091 4 12" stroke="#0DB7ED" stroke-width="2"/> <path d="M4 7V17C4 19.2091 7.58172 21 12 21C16.4183 21 20 19.2091 20 17V7" stroke="#0DB7ED" stroke-width="2"/> </g>
</svg>