<!DOCTYPE svg PUBLIC "-//W3C//DTD SVG 1.1//EN" "http://www.w3.org/Graphics/SVG/1.1/DTD/svg11.dtd">
<!-- Uploaded to: SVG Repo, www.svgrepo.com, Transformed by: SVG Repo Mixer Tools -->
<svg fill="#0DB7ED" height="256px" width="256px" version="1.1" id="Capa_1" xmlns="http://www.w3.org/2000/svg" xmlns:xlink="http://www.w3.org/1999/xlink" viewBox="0 0 388.226 388.226" xml:space="preserve" stroke="#0DB7ED">
<g id="SVGRepo_bgCarrier" stroke-width="0"/>
<g id="SVGRepo_tracerCarrier" stroke-linecap="round" stroke-linejoin="round"/>
<g id="SVGRepo_iconCarrier"> <g> <path d="M362.953,271.074l-22.71-60.84v-94.66c0-0.014-0.004-0.021-0.004-0.034c0-0.022,0.003-0.044,0.003-0.065 c-0.031-2.378-1.189-4.6-3.119-5.988L187.121,1.571c-0.002,0.002-0.004,0.003-0.005,0.005c-2.559-1.986-6.214-2.154-8.976-0.164 L27.918,109.486c-1.932,1.389-3.088,3.61-3.119,5.988c-0.031,2.378,1.066,4.63,2.959,6.069l75.889,57.722v4.718 c-6.344,11.978-19.055,45.289-13.027,112.724c0.346,3.867,3.586,6.832,7.469,6.832h39.594v1.4 c-20.953,4.897-87.863,24.267-99.969,74.014c-0.543,2.236-0.031,4.599,1.391,6.407c1.422,1.809,3.596,2.866,5.896,2.866h275.039 c2.302,0,4.476-1.057,5.897-2.866c1.422-1.809,1.935-4.171,1.391-6.407c-12.104-49.747-79.016-69.116-99.968-74.014v-1.4h39.593 c3.884,0,7.124-2.965,7.47-6.832c6.026-67.434-6.684-100.746-13.028-112.724v-4.718l63.85-48.564v79.532l-22.71,60.841 c-1.449,3.881,0.523,8.201,4.402,9.65c0.865,0.323,1.751,0.475,2.623,0.475c3.04,0,5.9-1.863,7.027-4.879l8.657-23.193v20.57 c0,4.143,3.358,7.5,7.5,7.5c4.142,0,7.5-3.357,7.5-7.5v-20.569l8.657,23.192c1.125,3.016,3.986,4.879,7.027,4.879 c0.871,0,1.757-0.153,2.621-0.475C362.429,279.275,364.401,274.955,362.953,271.074z M105.006,288.539 c-1.871-25.771-0.805-45.743,1.393-60.857c4.932,22.689,16.209,42.139,31.283,55.209v5.648H105.006z M182.587,147.31 c-25.444,0-48.97,7.759-63.94,19.966v-13.712c0-19.854,29.281-36.627,63.94-36.627c34.587,0,63.807,16.773,63.807,36.627v13.686 C231.449,155.059,207.976,147.31,182.587,147.31z M241.285,182.8c-37.387,3.85-58.402-2.561-69.626-8.931 c-5.46-3.1-9.073-6.403-11.436-9.175c7.113-1.535,14.681-2.385,22.364-2.385C207.375,162.31,230.281,170.668,241.285,182.8z M141.539,170.766c-0.658,6.414-2.77,11.44-6.328,14.988c-4.969,4.952-11.984,6.369-16.564,6.733v-1.92 C122.047,182.757,130.42,175.815,141.539,170.766z M55.541,373.226c3.836-8.271,9.775-15.427,16.822-21.583l17.395,21.583H55.541z M109.023,373.226L84.386,342.66c11.361-7.33,23.906-12.744,34.734-16.572l37.461,47.139H109.023z M190.559,373.226h-14.818 l-7.092-8.924h29.002L190.559,373.226z M309.498,373.226h-32.955l16.868-20.93C300.135,358.304,305.798,365.244,309.498,373.226z M281.48,343.198l-24.203,30.028h-47.559l37.182-46.787C257.767,330.34,270.243,335.816,281.48,343.198z M231.611,321.568 l-22.04,27.734h-52.843l-22.267-28.02c7.192-1.973,11.874-2.863,12.067-2.899c3.563-0.65,6.152-3.756,6.152-7.378v-17.918 c9.211,4.723,19.283,7.344,29.839,7.344c10.556,0,20.628-2.621,29.839-7.344v17.918c0,3.619,2.588,6.723,6.148,7.377 C218.711,318.42,223.834,319.395,231.611,321.568z M182.52,285.431c-33.77,0-61.485-34.471-63.712-77.929 c6.947-0.426,18.277-2.522,26.873-11.007c4.395-4.339,7.491-9.701,9.275-16.04c13.498,11.341,40.133,22.838,91.437,16.864v4.541 C246.393,247.942,217.74,285.431,182.52,285.431z M260.035,288.539h-32.676v-5.649c15.072-13.069,26.35-32.519,31.283-55.207 C260.838,242.798,261.906,262.767,260.035,288.539z M261.393,160.419v-6.855c0-28.95-34.616-51.627-78.807-51.627 c-20.428,0-39.757,4.987-54.429,14.043c-15.807,9.757-24.512,23.105-24.512,37.584v6.855l-58.74-44.678L182.52,16.738 l137.612,99.004L261.393,160.419z"/> </g> </g>
</svg>