<!DOCTYPE svg PUBLIC "-//W3C//DTD SVG 1.1//EN" "http://www.w3.org/Graphics/SVG/1.1/DTD/svg11.dtd">
<!-- Uploaded to: SVG Repo, www.svgrepo.com, Transformed by: SVG Repo Mixer Tools -->
<svg fill="#0DB7ED" width="129px" height="129px" viewBox="-0.48 -0.48 24.96 24.96" xmlns="http://www.w3.org/2000/svg" stroke="#0DB7ED" stroke-width="0.00024000000000000003">
<g id="SVGRepo_bgCarrier" stroke-width="0"/>
<g id="SVGRepo_tracerCarrier" stroke-linecap="round" stroke-linejoin="round" stroke="#CCCCCC" stroke-width="0.9120000000000001"/>
<g id="SVGRepo_iconCarrier">
<path d="M12,11A5,5,0,1,0,7,6,5.006,5.006,0,0,0,12,11Zm0-8A3,3,0,1,1,9,6,3,3,0,0,1,12,3ZM4,23H20a1,1,0,0,0,1-1V18a5.006,5.006,0,0,0-5-5H8a5.006,5.006,0,0,0-5,5v4A1,1,0,0,0,4,23Zm1-5a3,3,0,0,1,3-3h8a3,3,0,0,1,3,3v3H5Z"/>
</g>
</svg>