<!DOCTYPE svg PUBLIC "-//W3C//DTD SVG 1.1//EN" "http://www.w3.org/Graphics/SVG/1.1/DTD/svg11.dtd">
<!-- Uploaded to: SVG Repo, www.svgrepo.com, Transformed by: SVG Repo Mixer Tools -->
<svg width="256px" height="256px" viewBox="0 0 1024 1024" xmlns="http://www.w3.org/2000/svg" fill="#0DB7ED" stroke="#0DB7ED" stroke-width="17.408">
<g id="SVGRepo_bgCarrier" stroke-width="0"/>
<g id="SVGRepo_tracerCarrier" stroke-linecap="round" stroke-linejoin="round"/>
<g id="SVGRepo_iconCarrier">
<path fill="#0DB7ED" d="M640 384v64H448a128 128 0 0 0-128 128v128a128 128 0 0 0 128 128h320a128 128 0 0 0 128-128V576a128 128 0 0 0-64-110.848V394.88c74.56 26.368 128 97.472 128 181.056v128a192 192 0 0 1-192 192H448a192 192 0 0 1-192-192V576a192 192 0 0 1 192-192h192z"/>
<path fill="#0DB7ED" d="M384 640v-64h192a128 128 0 0 0 128-128V320a128 128 0 0 0-128-128H256a128 128 0 0 0-128 128v128a128 128 0 0 0 64 110.848v70.272A192.064 192.064 0 0 1 64 448V320a192 192 0 0 1 192-192h320a192 192 0 0 1 192 192v128a192 192 0 0 1-192 192H384z"/>
</g>
</svg>