<?xml version="1.0" encoding="iso-8859-1"?>
<!-- Uploaded to: SVG Repo, www.svgrepo.com, Generator: SVG Repo Mixer Tools -->
<svg height="800px" width="800px" version="1.1" id="Layer_1" xmlns="http://www.w3.org/2000/svg" xmlns:xlink="http://www.w3.org/1999/xlink" 
	 viewBox="0 0 512 512" xml:space="preserve">
<g>
	<polygon style="fill:#85C250;" points="170.659,48.531 207.057,280.265 170.659,512 0,463.469 0,0 	"/>
	<polygon style="fill:#85C250;" points="512,48.531 512,512 341.329,463.469 317.064,231.735 341.329,0 	"/>
</g>
<polygon style="fill:#C9D467;" points="341.329,0 341.329,463.469 170.659,512 170.659,48.531 "/>
<g>
	<path style="fill:#174461;" d="M122.136,449.671c-1.098,0-2.215-0.15-3.324-0.466l-73.599-20.929
		c-6.445-1.833-10.184-8.544-8.351-14.989c1.832-6.445,8.54-10.185,14.989-8.351l73.599,20.929
		c6.445,1.833,10.184,8.544,8.351,14.989C132.283,446.19,127.421,449.671,122.136,449.671z"/>
	<path style="fill:#174461;" d="M122.136,389.007c-1.098,0-2.215-0.15-3.324-0.466l-73.599-20.929
		c-6.445-1.833-10.184-8.544-8.351-14.989c1.832-6.445,8.54-10.187,14.989-8.351l73.599,20.929
		c6.445,1.833,10.184,8.544,8.351,14.989C132.283,385.526,127.421,389.007,122.136,389.007z"/>
	<path style="fill:#174461;" d="M122.136,328.344c-1.098,0-2.215-0.15-3.324-0.466l-73.599-20.929
		c-6.445-1.833-10.184-8.544-8.351-14.989c1.832-6.445,8.54-10.184,14.989-8.351l73.599,20.929
		c6.445,1.833,10.184,8.544,8.351,14.989C132.283,324.863,127.421,328.344,122.136,328.344z"/>
	<polygon style="fill:#174461;" points="48.531,74.464 48.531,234.616 122.13,255.545 122.13,95.393 	"/>
</g>
<g>
	<path style="fill:#FFFFFF;" d="M219.186,107.53c-5.286,0-10.147-3.481-11.664-8.817c-1.833-6.446,1.906-13.155,8.351-14.989
		l73.608-20.93c6.442-1.833,13.155,1.907,14.989,8.351c1.833,6.446-1.906,13.155-8.351,14.989l-73.608,20.93
		C221.401,107.379,220.285,107.53,219.186,107.53z"/>
	<path style="fill:#FFFFFF;" d="M219.186,449.672c-5.286,0-10.147-3.481-11.664-8.817c-1.833-6.446,1.906-13.155,8.351-14.989
		l73.608-20.93c6.442-1.833,13.155,1.906,14.989,8.351c1.833,6.446-1.906,13.155-8.351,14.989l-73.608,20.93
		C221.401,449.521,220.285,449.672,219.186,449.672z"/>
	<path style="fill:#FFFFFF;" d="M219.186,389.008c-5.286,0-10.147-3.481-11.664-8.817c-1.833-6.446,1.906-13.155,8.351-14.989
		l73.608-20.93c6.442-1.833,13.155,1.906,14.989,8.351c1.833,6.446-1.906,13.155-8.351,14.989l-73.608,20.93
		C221.401,388.858,220.285,389.008,219.186,389.008z"/>
	<path style="fill:#FFFFFF;" d="M219.186,328.345c-5.286,0-10.147-3.481-11.664-8.817c-1.833-6.446,1.906-13.155,8.351-14.989
		l73.608-20.93c6.442-1.832,13.155,1.907,14.989,8.351c1.833,6.446-1.906,13.156-8.351,14.989l-73.608,20.93
		C221.401,328.194,220.285,328.345,219.186,328.345z"/>
	<path style="fill:#FFFFFF;" d="M219.186,267.681c-5.286,0-10.147-3.481-11.664-8.817c-1.833-6.446,1.906-13.156,8.351-14.989
		l73.608-20.93c6.442-1.832,13.155,1.906,14.989,8.351c1.833,6.446-1.906,13.155-8.351,14.989l-73.608,20.93
		C221.401,267.531,220.285,267.681,219.186,267.681z"/>
</g>
<g>
	<path style="fill:#174461;" d="M463.475,107.53c-1.098,0-2.215-0.15-3.324-0.466l-73.608-20.931
		c-6.445-1.833-10.184-8.544-8.351-14.989c1.833-6.445,8.541-10.183,14.989-8.351l73.608,20.931
		c6.445,1.833,10.184,8.544,8.351,14.989C473.622,104.049,468.76,107.53,463.475,107.53z"/>
	<path style="fill:#174461;" d="M463.475,168.193c-1.098,0-2.215-0.15-3.324-0.466l-73.608-20.931
		c-6.445-1.833-10.184-8.544-8.351-14.989c1.833-6.445,8.541-10.182,14.989-8.351l73.608,20.931
		c6.445,1.833,10.184,8.544,8.351,14.989C473.622,164.712,468.76,168.193,463.475,168.193z"/>
	<path style="fill:#174461;" d="M463.475,228.857c-1.098,0-2.215-0.15-3.324-0.466l-73.608-20.931
		c-6.445-1.833-10.184-8.544-8.351-14.989c1.833-6.445,8.541-10.182,14.989-8.351l73.608,20.931
		c6.445,1.833,10.184,8.544,8.351,14.989C473.622,225.376,468.76,228.857,463.475,228.857z"/>
	<polygon style="fill:#174461;" points="389.861,256.454 389.861,416.605 463.469,437.537 463.469,277.385 	"/>
</g>
</svg>