<!DOCTYPE svg PUBLIC "-//W3C//DTD SVG 1.1//EN" "http://www.w3.org/Graphics/SVG/1.1/DTD/svg11.dtd">
<!-- Uploaded to: SVG Repo, www.svgrepo.com, Transformed by: SVG Repo Mixer Tools -->
<svg height="256px" width="256px" version="1.1" id="Capa_1" xmlns="http://www.w3.org/2000/svg" xmlns:xlink="http://www.w3.org/1999/xlink" viewBox="0 0 23.838 23.838" xml:space="preserve" fill="#000000">
<g id="SVGRepo_bgCarrier" stroke-width="0"/>
<g id="SVGRepo_tracerCarrier" stroke-linecap="round" stroke-linejoin="round" stroke="#CCCCCC" stroke-width="0.047676"/>
<g id="SVGRepo_iconCarrier"> <g> <path style="fill:#0DB7ED;" d="M11.92,0C5.717,0,0.672,3.98,0.672,11.038c0,7.057,5.045,12.8,11.248,12.8s11.247-5.743,11.247-12.8 C23.167,3.98,18.123,0,11.92,0z M5.554,11.038l4.402-3.274l-1.761,3.303c0,0,8.721,1.813,13.442-0.028 c0,0.576-0.039,1.143-0.113,1.695H2.315c-0.073-0.553-0.114-1.119-0.114-1.695L5.554,11.038L5.554,11.038z M11.92,22.098 c-4.386,0-8.092-3.305-9.301-7.847h2.905c0,1.588,1.288,2.879,2.877,2.879c1.591,0,2.879-1.291,2.879-2.879h1.325 c0.084,1.513,1.329,2.718,2.863,2.718s2.776-1.205,2.861-2.718h2.89C20.01,18.793,16.305,22.098,11.92,22.098z M13.794,19.627 c-2.315,1.172-3.7,0.032-3.715,0.02C10,19.581,9.891,19.606,9.835,19.704c-0.055,0.098-0.033,0.23,0.046,0.298 c0.039,0.036,0.706,0.591,1.884,0.591c0.593,0,1.32-0.143,2.161-0.565c0.089-0.049,0.133-0.173,0.095-0.282 C13.984,19.635,13.882,19.58,13.794,19.627z"/> </g> </g>
</svg>